# xmcd
#
# Track frame offsets: 
#        150
#        12177
#        27782
#        38520
#        50787
#        62397
#        74635
#        86000
#        101140
#        112912
#        123967
#        136767
#
# Disc length: 1971 seconds
#
# Revision: 0
# Processed by: cddbd v1.5.1PL0 Copyright (c) Steve Scherf et al.
# Submitted via: ExactAudioCopy v0.95a5
#
DISCID=9807b10c
DTITLE=Red Simpson - Truck Drivin' Fool (1967 Capitol)
DYEAR=1967
DGENRE=Country
TTITLE0=Diesel Smoke, Dangerous Curves
TTITLE1=Sleeper, Five-By-Two
TTITLE2=Black Smoke A Blowin' Over 18 Wheels
TTITLE3=Truck Daddy
TTITLE4=Take Me Home
TTITLE5=Jackknife
TTITLE6=A Tombstone Every Mile
TTITLE7=Born To Be A Trucker
TTITLE8=I'll Be Goin' Home To Momma
TTITLE9=Piggyback Blues
TTITLE10=Old Sam
TTITLE11=Truck Drivin' Fool
EXTD=
EXTT0=
EXTT1=
EXTT2=
EXTT3=
EXTT4=
EXTT5=
EXTT6=
EXTT7=
EXTT8=
EXTT9=
EXTT10=
EXTT11=
PLAYORDER=
